<?xml version="1.0" standalone="no"?>
<!DOCTYPE svg PUBLIC "-//W3C//DTD SVG 1.1//EN"
"http://www.w3.org/Graphics/SVG/1.1/DTD/svg11.dtd">

<svg width="637" height="720" view_box="0 0 637 720"
xmlns="http://www.w3.org/2000/svg"
xmlns:link="http://www.w3.org/1999/xlink">\n\n<desc>Généré par Mocodo 2.3.7 le Thu, 10 Oct 2019 02:38:16</desc>

<rect id="frame" x="0" y="0" width="637" height="720" fill="#f7f7f7" stroke="none" stroke-width="0"/>

<!-- Association HAS -->
<line x1="290" y1="365" x2="290" y2="77" stroke="#7fbc41" stroke-width="2"/>
<text x="295.0" y="162" fill="#c51b7d" font-family="Verdana" font-size="12">1,1</text>
<line x1="460" y1="77" x2="290" y2="77" stroke="#7fbc41" stroke-width="2"/>
<text x="384" y="94.0" fill="#c51b7d" font-family="Verdana" font-size="12">0,N</text>
<g id="association-HAS">
	<path d="M 296 52 a 14 14 90 0 1 14 14 V 77 h -40 V 66 a 14 14 90 0 1 14 -14" fill="#b8e186" stroke="#b8e186" stroke-width="0"/>
	<path d="M 310 77.0 v 11 a 14 14 90 0 1 -14 14 H 284 a 14 14 90 0 1 -14 -14 V 77.0 H 40" fill="#e6f5d0" stroke="#e6f5d0" stroke-width="0"/>
	<rect x="270" y="52" width="40" height="50" fill="none" rx="14" stroke="#7fbc41" stroke-width="2"/>
	<line x1="270" y1="77" x2="310" y2="77" stroke="#7fbc41" stroke-width="1"/>
	<text x="277" y="69.7" fill="#000000" font-family="Verdana" font-size="12">HAS</text>
</g>

<!-- Association MATCH -->
<line x1="580" y1="365" x2="460" y2="365" stroke="#7fbc41" stroke-width="2"/>
<text x="504" y="382.0" fill="#c51b7d" font-family="Verdana" font-size="12">0,N</text>
<line x1="460" y1="670" x2="460" y2="365" stroke="#7fbc41" stroke-width="2"/>
<text x="465.0" y="620" fill="#c51b7d" font-family="Verdana" font-size="12">0,N</text>
<g id="association-MATCH">
	<path d="M 475 340 a 14 14 90 0 1 14 14 V 365 h -58 V 354 a 14 14 90 0 1 14 -14" fill="#b8e186" stroke="#b8e186" stroke-width="0"/>
	<path d="M 489 365.0 v 11 a 14 14 90 0 1 -14 14 H 445 a 14 14 90 0 1 -14 -14 V 365.0 H 58" fill="#e6f5d0" stroke="#e6f5d0" stroke-width="0"/>
	<rect x="431" y="340" width="58" height="50" fill="none" rx="14" stroke="#7fbc41" stroke-width="2"/>
	<line x1="431" y1="365" x2="489" y2="365" stroke="#7fbc41" stroke-width="1"/>
	<text x="438" y="357.7" fill="#000000" font-family="Verdana" font-size="12">MATCH</text>
</g>

<!-- Association CHOOSE -->
<line x1="290" y1="365" x2="290" y2="670" stroke="#7fbc41" stroke-width="2"/>
<text x="295.0" y="577" fill="#c51b7d" font-family="Verdana" font-size="12">0,N</text>
<line x1="460" y1="670" x2="290" y2="670" stroke="#7fbc41" stroke-width="2"/>
<text x="393" y="687.0" fill="#c51b7d" font-family="Verdana" font-size="12">0,N</text>
<g id="association-CHOOSE">
	<path d="M 310 645 a 14 14 90 0 1 14 14 V 670 h -68 V 659 a 14 14 90 0 1 14 -14" fill="#b8e186" stroke="#b8e186" stroke-width="0"/>
	<path d="M 324 670.0 v 11 a 14 14 90 0 1 -14 14 H 270 a 14 14 90 0 1 -14 -14 V 670.0 H 68" fill="#e6f5d0" stroke="#e6f5d0" stroke-width="0"/>
	<rect x="256" y="645" width="68" height="50" fill="none" rx="14" stroke="#7fbc41" stroke-width="2"/>
	<line x1="256" y1="670" x2="324" y2="670" stroke="#7fbc41" stroke-width="1"/>
	<text x="263" y="662.7" fill="#000000" font-family="Verdana" font-size="12">CHOOSE</text>
</g>

<!-- Association DETERMINE -->
<line x1="290" y1="365" x2="90" y2="365" stroke="#7fbc41" stroke-width="2"/>
<text x="158" y="382.0" fill="#c51b7d" font-family="Verdana" font-size="12">1,1</text>
<line x1="90" y1="77" x2="90" y2="365" stroke="#7fbc41" stroke-width="2"/>
<text x="95.0" y="162" fill="#c51b7d" font-family="Verdana" font-size="12">0,N</text>
<g id="association-DETERMINE">
	<path d="M 120 340 a 14 14 90 0 1 14 14 V 365 h -88 V 354 a 14 14 90 0 1 14 -14" fill="#b8e186" stroke="#b8e186" stroke-width="0"/>
	<path d="M 134 365.0 v 11 a 14 14 90 0 1 -14 14 H 60 a 14 14 90 0 1 -14 -14 V 365.0 H 88" fill="#e6f5d0" stroke="#e6f5d0" stroke-width="0"/>
	<rect x="46" y="340" width="88" height="50" fill="none" rx="14" stroke="#7fbc41" stroke-width="2"/>
	<line x1="46" y1="365" x2="134" y2="365" stroke="#7fbc41" stroke-width="1"/>
	<text x="53" y="357.7" fill="#000000" font-family="Verdana" font-size="12">DETERMINE</text>
</g>

<!-- Entity FOOD -->
<g id="entity-FOOD">
	<g id="frame-FOOD">
		<rect x="531" y="280" width="98" height="25" fill="#f1b6da" stroke="#f1b6da" stroke-width="0"/>
		<rect x="531" y="305.0" width="98" height="145" fill="#fde0ef" stroke="#fde0ef" stroke-width="0"/>
		<rect x="531" y="280" width="98" height="170" fill="none" stroke="#de77ae" stroke-width="2"/>
		<line x1="531" y1="305" x2="629" y2="305" stroke="#de77ae" stroke-width="1"/>
	</g>
	<text x="562" y="297.7" fill="#000000" font-family="Verdana" font-size="12">FOOD</text>
	<text x="536" y="322.7" fill="#000000" font-family="Verdana" font-size="12">food_name</text>
	<line x1="536" y1="325" x2="605" y2="325" stroke="#000000" stroke-width="1"/>
	<text x="536" y="339.7" fill="#000000" font-family="Verdana" font-size="12">food_energy</text>
	<text x="536" y="356.7" fill="#000000" font-family="Verdana" font-size="12">food_fat</text>
	<text x="536" y="373.8" fill="#000000" font-family="Verdana" font-size="12">food_carbo</text>
	<text x="536" y="390.8" fill="#000000" font-family="Verdana" font-size="12">food_prot</text>
	<text x="536" y="407.8" fill="#000000" font-family="Verdana" font-size="12">food_category</text>
	<text x="536" y="424.8" fill="#000000" font-family="Verdana" font-size="12">created_at</text>
	<text x="536" y="441.8" fill="#000000" font-family="Verdana" font-size="12">updated_at</text>
</g>

<!-- Entity ACTIVITY -->
<g id="entity-ACTIVITY">
	<g id="frame-ACTIVITY">
		<rect x="411" y="26" width="98" height="25" fill="#f1b6da" stroke="#f1b6da" stroke-width="0"/>
		<rect x="411" y="51.0" width="98" height="77" fill="#fde0ef" stroke="#fde0ef" stroke-width="0"/>
		<rect x="411" y="26" width="98" height="102" fill="none" stroke="#de77ae" stroke-width="2"/>
		<line x1="411" y1="51" x2="509" y2="51" stroke="#de77ae" stroke-width="1"/>
	</g>
	<text x="431" y="43.7" fill="#000000" font-family="Verdana" font-size="12">ACTIVITY</text>
	<text x="416" y="68.7" fill="#000000" font-family="Verdana" font-size="12">level_activity</text>
	<line x1="416" y1="71" x2="496" y2="71" stroke="#000000" stroke-width="1"/>
	<text x="416" y="85.8" fill="#000000" font-family="Verdana" font-size="12">factor_activity</text>
	<text x="416" y="102.8" fill="#000000" font-family="Verdana" font-size="12">created_at</text>
	<text x="416" y="119.8" fill="#000000" font-family="Verdana" font-size="12">updated_at</text>
</g>

<!-- Entity GOAL -->
<g id="entity-GOAL">
	<g id="frame-GOAL">
		<rect x="9" y="9" width="162" height="25" fill="#f1b6da" stroke="#f1b6da" stroke-width="0"/>
		<rect x="9" y="34.0" width="162" height="111" fill="#fde0ef" stroke="#fde0ef" stroke-width="0"/>
		<rect x="9" y="9" width="162" height="136" fill="none" stroke="#de77ae" stroke-width="2"/>
		<line x1="9" y1="34" x2="171" y2="34" stroke="#de77ae" stroke-width="1"/>
	</g>
	<text x="72" y="26.7" fill="#000000" font-family="Verdana" font-size="12">GOAL</text>
	<text x="14" y="51.7" fill="#000000" font-family="Verdana" font-size="12">goal_type</text>
	<line x1="14" y1="54" x2="74" y2="54" stroke="#000000" stroke-width="1"/>
	<text x="14" y="68.7" fill="#000000" font-family="Verdana" font-size="12">carbohydrate_proportion</text>
	<text x="14" y="85.8" fill="#000000" font-family="Verdana" font-size="12">protein_proportion</text>
	<text x="14" y="102.8" fill="#000000" font-family="Verdana" font-size="12">fat_proportion</text>
	<text x="14" y="119.8" fill="#000000" font-family="Verdana" font-size="12">created_at</text>
	<text x="14" y="136.8" fill="#000000" font-family="Verdana" font-size="12">updated_at</text>
</g>

<!-- Entity DIET -->
<g id="entity-DIET">
	<g id="frame-DIET">
		<rect x="420" y="628" width="80" height="25" fill="#f1b6da" stroke="#f1b6da" stroke-width="0"/>
		<rect x="420" y="653.0" width="80" height="59" fill="#fde0ef" stroke="#fde0ef" stroke-width="0"/>
		<rect x="420" y="628" width="80" height="84" fill="none" stroke="#de77ae" stroke-width="2"/>
		<line x1="420" y1="653" x2="500" y2="653" stroke="#de77ae" stroke-width="1"/>
	</g>
	<text x="445" y="645.7" fill="#000000" font-family="Verdana" font-size="12">DIET</text>
	<text x="425" y="670.8" fill="#000000" font-family="Verdana" font-size="12">diet_type</text>
	<line x1="425" y1="673" x2="483" y2="673" stroke="#000000" stroke-width="1"/>
	<text x="425" y="687.8" fill="#000000" font-family="Verdana" font-size="12">created_at</text>
	<text x="425" y="704.8" fill="#000000" font-family="Verdana" font-size="12">updated_at</text>
</g>

<!-- Entity USER -->
<g id="entity-USER">
	<g id="frame-USER">
		<rect x="184" y="170" width="212" height="25" fill="#f1b6da" stroke="#f1b6da" stroke-width="0"/>
		<rect x="184" y="195.0" width="212" height="365" fill="#fde0ef" stroke="#fde0ef" stroke-width="0"/>
		<rect x="184" y="170" width="212" height="390" fill="none" stroke="#de77ae" stroke-width="2"/>
		<line x1="184" y1="195" x2="396" y2="195" stroke="#de77ae" stroke-width="1"/>
	</g>
	<text x="273" y="187.7" fill="#000000" font-family="Verdana" font-size="12">USER</text>
	<text x="189" y="212.7" fill="#000000" font-family="Verdana" font-size="12">username</text>
	<line x1="189" y1="215" x2="250" y2="215" stroke="#000000" stroke-width="1"/>
	<text x="189" y="229.7" fill="#000000" font-family="Verdana" font-size="12">email</text>
	<text x="189" y="246.7" fill="#000000" font-family="Verdana" font-size="12">password</text>
	<text x="189" y="263.7" fill="#000000" font-family="Verdana" font-size="12">age</text>
	<text x="189" y="280.7" fill="#000000" font-family="Verdana" font-size="12">weight</text>
	<text x="189" y="297.7" fill="#000000" font-family="Verdana" font-size="12">height</text>
	<text x="189" y="314.7" fill="#000000" font-family="Verdana" font-size="12">gender</text>
	<text x="189" y="331.7" fill="#000000" font-family="Verdana" font-size="12">basal_metabolic_rate</text>
	<text x="189" y="348.7" fill="#000000" font-family="Verdana" font-size="12">energy_expenditure</text>
	<text x="189" y="365.8" fill="#000000" font-family="Verdana" font-size="12">daily_calories</text>
	<text x="189" y="382.8" fill="#000000" font-family="Verdana" font-size="12">breakfast_dinner_calories</text>
	<text x="189" y="399.8" fill="#000000" font-family="Verdana" font-size="12">lunch_calories</text>
	<text x="189" y="416.8" fill="#000000" font-family="Verdana" font-size="12">breakfast_dinner_carbo_quantity</text>
	<text x="189" y="433.8" fill="#000000" font-family="Verdana" font-size="12">lunch_carbo_quantity</text>
	<text x="189" y="450.8" fill="#000000" font-family="Verdana" font-size="12">breakfatst_dinner_prot_quantity</text>
	<text x="189" y="467.8" fill="#000000" font-family="Verdana" font-size="12">lunch_prot_quantity</text>
	<text x="189" y="484.8" fill="#000000" font-family="Verdana" font-size="12">breakfast_dinner_fat_quantity</text>
	<text x="189" y="501.8" fill="#000000" font-family="Verdana" font-size="12">lunch_fato_quantity</text>
	<text x="189" y="518.8" fill="#000000" font-family="Verdana" font-size="12">token</text>
	<text x="189" y="535.8" fill="#000000" font-family="Verdana" font-size="12">created_at</text>
	<text x="189" y="552.8" fill="#000000" font-family="Verdana" font-size="12">updated_at</text>
</g>
</svg>